<?xml version="1.0" encoding="UTF-8" standalone="no"?>
<!DOCTYPE svg PUBLIC "-//W3C//DTD SVG 1.1//EN" "http://www.w3.org/Graphics/SVG/1.1/DTD/svg11.dtd">
<svg width="100%" height="100%" viewBox="0 0 1766 396" version="1.1" xmlns="http://www.w3.org/2000/svg" xmlns:xlink="http://www.w3.org/1999/xlink" xml:space="preserve" style="fill-rule:evenodd;clip-rule:evenodd;stroke-linejoin:round;stroke-miterlimit:2;">
    <g transform="matrix(1.16655,0,0,1.16655,428.973,320.081)">
        <path d="M119.002,3.377C59.497,3.377 10.164,-45.565 10.164,-104.818C10.164,-163.939 59.497,-213.534 118.482,-213.534C145.695,-213.143 170.825,-201.56 191.398,-181.503L172.258,-155.604C157.544,-170.32 138.403,-180.086 117.831,-180.086C79.81,-180.086 43.481,-146.749 43.481,-104.679C43.481,-62.362 80.331,-29.679 117.961,-29.679C139.445,-29.679 157.935,-40.356 172.388,-54.679L191.398,-28.118C173.299,-10.288 150.252,3.377 119.002,3.377ZM293.842,-181.244L318.353,-181.244L318.353,-25.006L293.842,-25.006L293.842,-91.015L226.173,-91.015L226.173,-25.006L201.759,-25.006L201.759,-181.244L226.173,-181.244L226.173,-115.332L293.842,-115.332L293.842,-181.244ZM456.483,-25.006L426.346,-25.006L384.27,-85.49L365.07,-85.49L365.07,-25.006L340.529,-25.006L340.432,-181.244L389.021,-181.244C418.111,-181.244 441.944,-158.864 441.944,-131.041C441.944,-110.874 428.962,-93.336 411.033,-87.524L456.483,-25.006ZM364.973,-105.833L389.603,-105.833C404.342,-105.736 416.657,-117.661 416.657,-131.622C416.657,-146.165 404.148,-156.927 389.603,-156.927L364.973,-156.927L364.973,-105.833ZM538.206,-22.486C493.808,-22.486 457.568,-58.727 457.568,-102.931C457.568,-147.523 493.808,-183.958 538.303,-183.958C582.702,-183.958 619.136,-147.523 619.136,-102.931C619.136,-58.727 582.702,-22.486 538.206,-22.486ZM538.206,-47.288C569.033,-47.288 594.335,-72.395 594.335,-103.125C594.335,-134.049 569.033,-159.253 538.206,-159.253C507.38,-159.253 482.272,-134.049 482.272,-103.125C482.272,-72.395 507.38,-47.288 538.206,-47.288ZM734.701,-181.632L759.309,-181.632L759.309,-22.292L758.158,-22.292L658.212,-126.677L658.212,-24.812L633.701,-24.812L633.701,-183.958L634.949,-183.958L734.701,-79.767L734.701,-181.632ZM803.641,-19.019C791.536,-19.019 781.513,-28.911 781.513,-41.016C781.513,-53.121 791.536,-63.143 803.641,-63.143C815.615,-63.143 825.768,-52.991 825.768,-41.016C825.768,-28.911 815.746,-19.019 803.641,-19.019ZM922.681,-21.032C874.115,-21.032 837.002,-56.4 837.002,-102.931C837.002,-149.85 874.212,-185.412 922.778,-185.412C971.345,-185.412 1008.56,-149.85 1008.56,-102.931C1008.56,-56.4 971.345,-21.032 922.681,-21.032ZM922.778,-60.664C947.596,-60.664 966.596,-79.18 966.596,-103.222C966.596,-127.36 947.596,-145.974 922.778,-145.974C897.961,-145.974 878.96,-127.36 878.96,-103.222C878.96,-79.18 897.961,-60.664 922.778,-60.664ZM1069.72,-22.874C1044.04,-22.874 1020.69,-34.211 1012.84,-51.459L1037.93,-76.078C1044.43,-66.48 1056.54,-60.664 1069.63,-60.664C1078.45,-60.664 1087.08,-63.863 1087.08,-70.261C1087.08,-78.307 1071.08,-85.384 1055.76,-92.17C1036,-100.701 1019.04,-113.691 1019.04,-137.248C1019.04,-164.287 1044.72,-183.57 1074.38,-183.57C1098.23,-183.57 1116.83,-172.33 1122.94,-156.923L1099,-133.855C1094.35,-142.096 1082.33,-145.683 1074.86,-145.683C1066.33,-145.683 1060.22,-141.32 1060.22,-135.988C1060.22,-128.814 1071.28,-126.488 1088.15,-119.411C1112.57,-109.135 1128.75,-94.206 1128.75,-71.134C1128.75,-41.381 1101.04,-22.874 1069.72,-22.874ZM-207.161,-271.266C-153.949,-271.936 -109.41,-252.8 -73.546,-213.859C-47.681,-183.728 -33.666,-148.69 -31.501,-108.745C-30.869,-51.599 -52.902,-5.578 -97.601,29.317C-138.325,59.375 -183.604,69.482 -233.439,59.638C-279.495,48.385 -315.408,22.983 -341.18,-16.569C-353.372,-36.163 -360.919,-57.455 -363.82,-80.446C-370.291,-144.764 -348.393,-196.983 -298.124,-237.105C-271.078,-257.091 -240.757,-268.479 -207.161,-271.266ZM-138.837,-56.997C-154.132,-56.661 -169.494,-56.459 -184.925,-56.391C-179.123,-54.837 -173.732,-52.411 -168.754,-49.114C-158.108,-48.979 -147.462,-48.844 -136.816,-48.71C-133.981,-48.068 -131.623,-46.653 -129.741,-44.465C-126.24,-39.231 -124.286,-33.436 -123.879,-27.081L-114.58,-27.081C-115.118,-31.856 -115.993,-36.572 -117.208,-41.231C-121.191,-50.944 -128.4,-56.199 -138.837,-56.997ZM-268.207,-21.825C-277.039,-21.537 -285.933,-21.2 -294.89,-20.814C-294.097,-19.616 -293.154,-18.539 -292.06,-17.58C-278.719,-17.31 -265.377,-17.31 -252.036,-17.58C-251.538,-18.87 -250.999,-20.15 -250.419,-21.421C-256.342,-21.825 -262.272,-21.96 -268.207,-21.825ZM-257.292,-56.997C-264.412,-56.909 -270.409,-54.214 -275.282,-48.912C-279.854,-42.405 -282.212,-35.128 -282.357,-27.081C-279.241,-26.987 -276.141,-27.122 -273.059,-27.485C-272.739,-30.769 -272.132,-34.003 -271.239,-37.188C-269.855,-43.289 -266.149,-47.129 -260.122,-48.71C-249.61,-48.844 -239.099,-48.979 -228.588,-49.114C-223.41,-52.008 -218.019,-54.434 -212.416,-56.391C-227.404,-56.461 -242.362,-56.663 -257.292,-56.997ZM-146.519,-21.825C-146.121,-20.486 -145.717,-19.139 -145.306,-17.782C-131.56,-17.243 -117.815,-17.243 -104.069,-17.782C-103.648,-18.625 -103.042,-19.299 -102.25,-19.804C-102.055,-20.187 -101.988,-20.591 -102.048,-21.016C-117.006,-21.404 -131.83,-21.673 -146.519,-21.825ZM-203.522,-49.316C-227.108,-44.798 -240.787,-30.648 -244.557,-6.867C-245.454,15.81 -235.684,31.914 -215.246,41.445C-195.89,48.076 -178.977,44.235 -164.509,29.923C-151.76,14.608 -149.065,-2.372 -156.424,-21.016C-165.97,-40.587 -181.669,-50.021 -203.522,-49.316ZM-168.754,-3.228C-164.305,-3.296 -159.858,-3.228 -155.413,-3.026C-153.796,-1.678 -153.796,-0.331 -155.413,1.017C-159.86,1.287 -164.307,1.287 -168.754,1.017C-170.329,-0.394 -170.329,-1.809 -168.754,-3.228ZM-199.075,32.349C-198.09,32.275 -197.214,32.544 -196.447,33.157C-196.178,36.526 -196.178,39.895 -196.447,43.264C-197.906,44.384 -199.253,44.249 -200.49,42.86C-200.76,39.895 -200.76,36.93 -200.49,33.966C-200.211,33.218 -199.74,32.679 -199.075,32.349ZM-241.525,-3.228C-237.076,-3.296 -232.629,-3.228 -228.183,-3.026C-226.566,-1.678 -226.566,-0.331 -228.183,1.017C-232.765,1.287 -237.347,1.287 -241.929,1.017C-243.126,-0.609 -242.991,-2.024 -241.525,-3.228ZM-235.461,-25.059C-234.774,-25.124 -234.1,-25.057 -233.439,-24.857C-230.911,-23.223 -228.418,-21.538 -225.96,-19.804C-225.343,-17.46 -226.219,-16.315 -228.588,-16.367C-230.879,-17.85 -233.169,-19.332 -235.461,-20.814C-236.992,-22.193 -236.992,-23.608 -235.461,-25.059ZM-199.48,-44.869C-197.241,-45.37 -196.028,-44.493 -195.841,-42.241C-196.156,-39.493 -196.358,-36.731 -196.447,-33.953C-198.918,-32.424 -200.266,-33.098 -200.49,-35.975C-200.76,-38.266 -200.76,-40.557 -200.49,-42.848C-200.342,-43.637 -200.005,-44.31 -199.48,-44.869ZM-220.502,-39.613C-219.228,-39.832 -218.217,-39.428 -217.47,-38.401C-216.023,-35.978 -214.743,-33.485 -213.629,-30.921C-214.172,-28.665 -215.385,-28.193 -217.268,-29.506C-219.104,-32.014 -220.586,-34.709 -221.715,-37.592C-221.611,-38.478 -221.207,-39.152 -220.502,-39.613ZM-227.779,14.56C-225.371,14.798 -224.63,16.01 -225.556,18.199C-228.231,20.108 -230.994,21.86 -233.843,23.454C-235.766,22.897 -236.305,21.684 -235.461,19.816C-232.957,17.959 -230.397,16.208 -227.779,14.56ZM-216.864,27.093C-214.44,26.621 -213.429,27.564 -213.831,29.923C-215.179,32.349 -216.527,34.774 -217.874,37.2C-220.75,38.367 -221.962,37.423 -221.513,34.37C-220.06,31.864 -218.51,29.439 -216.864,27.093ZM-169.967,14.56C-167.228,15.998 -164.533,17.548 -161.881,19.21C-160.179,20.961 -160.448,22.376 -162.69,23.454C-165.438,22.012 -168.133,20.463 -170.776,18.805C-172.028,17.05 -171.758,15.635 -169.967,14.56ZM-182.095,27.093C-181.276,27.028 -180.467,27.095 -179.67,27.295C-178.339,29.215 -177.059,31.169 -175.829,33.157C-174.091,35.985 -174.833,37.535 -178.053,37.806C-179.584,36.025 -180.864,34.071 -181.893,31.944C-183.09,30.322 -183.157,28.705 -182.095,27.093ZM-199.48,-31.123C-197.686,-31.339 -196.405,-30.665 -195.639,-29.102C-195.504,-21.69 -195.369,-14.278 -195.235,-6.867C-185.026,-13.082 -174.852,-19.349 -164.711,-25.666C-161.351,-25.673 -159.801,-23.989 -160.062,-20.612C-160.516,-19.753 -161.122,-19.012 -161.881,-18.389C-177.49,-7.765 -192.988,3.016 -208.374,13.954C-212.608,14.977 -214.427,13.292 -213.831,8.9C-211.556,6.088 -208.794,3.864 -205.544,2.23C-204.44,1.168 -203.699,-0.112 -203.32,-1.611C-201.967,-2.426 -201.294,-3.638 -201.299,-5.249C-201.164,-13.335 -201.029,-21.421 -200.894,-29.506C-200.449,-30.092 -199.977,-30.631 -199.48,-31.123ZM-177.648,-39.613C-176.295,-39.406 -175.352,-38.665 -174.818,-37.39C-176.085,-35.04 -177.365,-32.681 -178.659,-30.315C-180.462,-28.05 -182.012,-28.185 -183.308,-30.719C-181.988,-33.323 -180.573,-35.883 -179.063,-38.401C-178.6,-38.86 -178.129,-39.264 -177.648,-39.613ZM-151.774,-32.741C-150.822,-29.936 -148.801,-28.79 -145.71,-29.304C-144.902,-29.035 -144.363,-28.496 -144.093,-27.687C-143.061,-27.343 -142.118,-27.478 -141.263,-28.091C-141.761,-29.627 -142.57,-30.974 -143.689,-32.134C-146.347,-32.691 -149.043,-32.893 -151.774,-32.741ZM-252.036,-32.741C-254.324,-31.79 -255.537,-30.038 -255.675,-27.485C-254.722,-27.419 -253.778,-27.486 -252.845,-27.687C-252.575,-28.496 -252.036,-29.035 -251.227,-29.304C-249.768,-29.357 -248.353,-29.424 -246.983,-29.506C-246.578,-30.587 -245.971,-31.531 -245.163,-32.336C-247.439,-32.739 -249.729,-32.874 -252.036,-32.741ZM-256.887,38.009C-252.196,39.73 -247.479,41.415 -242.738,43.062C-239.137,43.887 -235.498,44.157 -231.822,43.871C-233.989,41.972 -236.145,40.086 -238.29,38.211C-243.143,38.04 -247.994,37.838 -252.845,37.604C-254.267,37.605 -255.614,37.74 -256.887,38.009ZM-296.103,-30.315C-297.776,-29.885 -299.528,-29.616 -301.358,-29.506C-300.862,-28.117 -300.054,-26.904 -298.933,-25.868C-295.848,-25.658 -292.749,-25.658 -289.634,-25.868C-289.455,-27.345 -289.32,-28.828 -289.23,-30.315L-296.103,-30.315ZM-161.477,-44.06C-159.557,-42.069 -157.67,-39.98 -155.817,-37.794C-152.914,-37.606 -149.882,-37.673 -146.721,-37.996C-139.948,-37.76 -136.512,-34.256 -136.412,-27.485L-129.539,-27.485C-129.831,-30.945 -130.572,-34.314 -131.762,-37.592C-133.12,-40.838 -135.479,-42.927 -138.837,-43.858C-146.383,-44.06 -153.929,-44.128 -161.477,-44.06ZM-107.708,-30.315C-107.459,-28.845 -107.324,-27.363 -107.303,-25.868C-104.203,-25.643 -101.104,-25.576 -98.005,-25.666C-97.138,-26.87 -96.195,-28.015 -95.175,-29.102C-99.3,-30.01 -103.478,-30.414 -107.708,-30.315ZM-200.288,-265.202C-200.944,-264.685 -201.618,-264.146 -202.309,-263.585C-202.915,-261.97 -203.522,-260.353 -204.129,-258.734C-204.494,-258.248 -204.965,-257.911 -205.544,-257.723C-238.106,-254.961 -267.214,-243.641 -292.868,-223.763C-328.693,-193.939 -348.503,-155.599 -352.298,-108.745C-354.083,-108.824 -355.835,-108.622 -357.553,-108.139C-360.748,-105.304 -360.748,-102.474 -357.553,-99.649C-355.96,-99.248 -354.343,-98.978 -352.702,-98.841C-352.449,-98.537 -352.247,-98.2 -352.096,-97.83C-350.744,-81.233 -347.375,-65.062 -341.989,-49.316C-341.805,-48.404 -341.267,-47.865 -340.371,-47.699C-337.597,-48.342 -334.834,-49.016 -332.084,-49.72C-331.41,-49.384 -330.736,-49.046 -330.062,-48.71C-328.089,-45.369 -326.269,-41.933 -324.604,-38.401C-323.722,-37.442 -322.846,-37.51 -321.977,-38.603C-329.825,-56.048 -334.474,-74.308 -335.924,-93.383C-334.31,-94.592 -332.828,-95.94 -331.477,-97.426C-327.981,-104.33 -329.463,-109.855 -335.924,-114.001C-335.992,-114.81 -336.059,-115.618 -336.127,-116.427C-333.794,-139.109 -326.45,-159.996 -314.093,-179.09C-289.555,-215.662 -255.394,-237.156 -211.608,-243.573C-210.108,-241.451 -208.76,-239.227 -207.565,-236.903C-207.65,-236.666 -207.785,-236.464 -207.969,-236.296C-213.489,-235.153 -218.34,-232.728 -222.524,-229.019C-229.974,-227.479 -237.116,-225.053 -243.95,-221.742C-242.064,-221.607 -240.177,-221.472 -238.29,-221.338C-240.077,-219.823 -241.559,-218.071 -242.738,-216.082C-247.752,-216.058 -252.738,-215.788 -257.696,-215.274C-262.496,-212.627 -267.077,-209.662 -271.442,-206.379C-263.492,-206.177 -255.541,-206.11 -247.589,-206.177C-247.77,-204.274 -248.04,-202.387 -248.398,-200.517C-258.771,-200.18 -269.148,-199.978 -279.527,-199.911C-282.896,-197.081 -285.996,-193.981 -288.826,-190.612C-275.215,-190.41 -261.605,-190.343 -247.993,-190.41C-247.781,-188.617 -247.376,-186.865 -246.78,-185.155C-251.16,-184.853 -255.54,-184.583 -259.92,-184.346C-260.551,-184.388 -261.157,-184.523 -261.739,-184.75C-272.502,-184.417 -283.283,-184.215 -294.081,-184.144C-296.661,-181.16 -299.087,-178.061 -301.358,-174.845C-282.627,-174.711 -263.895,-174.576 -245.163,-174.441C-244.413,-173.963 -244.008,-173.289 -243.95,-172.42C-244.256,-171.156 -244.391,-169.876 -244.355,-168.579C-264.705,-168.714 -285.054,-168.579 -305.401,-168.175C-307.234,-165.195 -308.986,-162.163 -310.657,-159.078C-287.477,-159.011 -264.298,-158.809 -241.12,-158.472C-239.79,-156.601 -238.307,-154.85 -236.673,-153.216C-262.278,-152.947 -287.882,-152.677 -313.487,-152.408C-315.152,-149.163 -316.5,-145.794 -317.53,-142.301C-307.194,-142.03 -296.885,-141.76 -286.602,-141.492C-268.393,-141.59 -250.133,-141.59 -231.822,-141.492C-231.989,-139.643 -232.259,-137.824 -232.631,-136.034C-261.661,-135.874 -290.634,-135.806 -319.551,-135.832C-320.173,-132.453 -320.847,-129.084 -321.572,-125.725C-296.642,-125.456 -271.711,-125.186 -246.78,-124.917C-249.89,-122.687 -253.259,-120.867 -256.887,-119.459C-278.853,-119.257 -300.819,-119.189 -322.785,-119.257C-323.081,-115.491 -323.216,-111.718 -323.19,-107.937C-308.5,-108.004 -293.811,-107.937 -279.123,-107.735C-282.698,-105.745 -286.336,-103.858 -290.038,-102.075C-301.088,-101.873 -312.138,-101.805 -323.19,-101.873C-323.265,-98.088 -323.13,-94.315 -322.785,-90.553L-294.89,-90.553C-295.167,-88.637 -295.571,-86.75 -296.103,-84.893C-304.266,-84.789 -312.284,-84.789 -320.157,-84.893C-320.653,-84.834 -321.125,-84.7 -321.572,-84.489C-321.591,-80.87 -321.052,-77.299 -319.955,-73.775C-312.813,-73.641 -305.671,-73.505 -298.528,-73.371C-299.153,-71.746 -299.558,-70.062 -299.741,-68.317L-318.742,-68.317C-317.994,-64.59 -316.916,-60.952 -315.508,-57.402C-311.184,-57.183 -306.872,-57.049 -302.571,-56.997C-302.906,-55.256 -303.175,-53.504 -303.38,-51.742C-306.751,-51.809 -310.12,-51.742 -313.487,-51.54C-312.308,-48.575 -310.961,-45.678 -309.444,-42.848C-308.26,-42.45 -307.047,-42.315 -305.805,-42.443C-306.285,-40.827 -306.622,-39.21 -306.816,-37.592C-306.026,-36.063 -305.015,-34.716 -303.784,-33.549C-303.48,-33.903 -303.278,-34.308 -303.178,-34.762C-298.273,-55.647 -293.422,-76.535 -288.623,-97.426C-268.728,-107.747 -248.919,-118.258 -229.194,-128.96C-228.401,-132.52 -227.66,-136.091 -226.971,-139.673C-227.758,-141.316 -228.499,-143.001 -229.194,-144.726C-229.88,-148.382 -230.621,-152.02 -231.418,-155.642C-233.087,-156.377 -234.502,-157.455 -235.663,-158.876C-239.978,-164.906 -240.585,-171.307 -237.482,-178.08C-242.874,-184.888 -244.963,-192.637 -243.748,-201.326C-242.112,-213.742 -235.172,-221.221 -222.928,-223.763C-214.268,-230.984 -204.296,-233.814 -193.011,-232.253C-186.669,-231.625 -181.279,-229.065 -176.84,-224.572C-173.088,-224.702 -169.449,-224.163 -165.924,-222.955C-162.616,-221.672 -160.662,-219.314 -160.062,-215.88C-157.583,-213.214 -155.83,-210.114 -154.806,-206.581C-151.92,-196.325 -153.47,-186.824 -159.456,-178.08C-155.486,-168.551 -157.642,-160.802 -165.924,-154.833C-166.356,-151.434 -166.962,-148.065 -167.743,-144.726C-168.104,-143.331 -168.778,-142.118 -169.765,-141.088C-169.46,-137.001 -168.786,-132.958 -167.743,-128.96C-147.76,-118.428 -127.816,-107.782 -107.91,-97.021C-103.254,-75.83 -98.47,-54.672 -93.558,-33.549C-93.245,-33.06 -92.908,-33.06 -92.547,-33.549C-91.739,-34.897 -90.93,-36.245 -90.121,-37.592C-90.274,-39.104 -90.543,-40.586 -90.93,-42.039C-89.665,-42.294 -88.385,-42.563 -87.089,-42.848C-85.794,-45.775 -84.446,-48.673 -83.047,-51.54C-86.548,-51.742 -90.052,-51.809 -93.558,-51.742C-93.892,-53.483 -94.161,-55.235 -94.366,-56.997C-90.052,-56.93 -85.739,-56.997 -81.429,-57.2C-79.814,-60.565 -78.601,-64.069 -77.791,-67.711L-78.397,-68.317C-84.579,-68.304 -90.846,-68.304 -97.196,-68.317C-97.466,-70.069 -97.735,-71.821 -98.005,-73.573L-76.578,-73.573C-75.904,-77.077 -75.231,-80.58 -74.557,-84.084C-83.3,-84.781 -92.06,-85.051 -100.835,-84.893C-101.367,-86.75 -101.771,-88.637 -102.048,-90.553L-74.152,-90.553C-73.651,-94.199 -73.516,-97.838 -73.748,-101.468C-84.385,-101.882 -94.896,-102.084 -105.282,-102.075C-109.796,-103.186 -113.974,-105.073 -117.815,-107.735C-103.126,-107.937 -88.438,-108.004 -73.748,-107.937C-73.672,-111.721 -73.807,-115.495 -74.152,-119.257C-96.254,-119.189 -118.354,-119.257 -140.454,-119.459C-143.818,-121.005 -147.052,-122.757 -150.157,-124.715C-125.239,-125.312 -100.309,-125.514 -75.365,-125.321C-75.783,-128.877 -76.456,-132.381 -77.387,-135.832C-106.408,-135.837 -135.382,-135.837 -164.307,-135.832C-164.611,-136.186 -164.813,-136.591 -164.913,-137.045C-165.115,-138.522 -165.182,-140.004 -165.116,-141.492C-142.877,-141.746 -120.776,-141.746 -98.814,-141.492C-92.208,-141.701 -85.605,-141.97 -79.004,-142.301C-80.24,-145.715 -81.587,-149.084 -83.047,-152.408C-108.919,-152.745 -134.793,-152.947 -160.669,-153.014C-158.768,-154.779 -157.016,-156.666 -155.413,-158.674C-132.368,-158.742 -109.324,-158.944 -86.281,-159.281C-87.722,-162.34 -89.339,-165.304 -91.132,-168.175C-111.614,-168.579 -132.098,-168.714 -152.583,-168.579C-152.874,-169.92 -152.942,-171.268 -152.785,-172.622C-152.741,-173.571 -152.269,-174.178 -151.37,-174.441C-132.772,-174.509 -114.175,-174.711 -95.579,-175.048C-97.769,-178.517 -100.329,-181.684 -103.261,-184.548C-118.924,-184.527 -134.488,-184.46 -149.955,-184.346C-149.954,-186.377 -149.752,-188.399 -149.349,-190.41C-135.468,-190.343 -121.587,-190.41 -107.708,-190.612C-110.819,-193.859 -114.054,-196.959 -117.41,-199.911C-128.056,-200.113 -138.702,-200.18 -149.349,-200.113C-149.479,-202.112 -149.479,-204.066 -149.349,-205.975C-141.533,-206.11 -133.716,-206.245 -125.9,-206.379C-130.354,-210.089 -135.205,-213.189 -140.454,-215.678C-145.036,-215.812 -149.618,-215.947 -154.2,-216.082C-155.562,-217.66 -156.774,-219.344 -157.839,-221.136C-155.83,-221.471 -153.809,-221.673 -151.774,-221.742C-156.805,-223.987 -161.925,-226.009 -167.137,-227.806C-169.651,-228.502 -172.211,-228.907 -174.818,-229.019C-178.872,-232.663 -183.588,-235.021 -188.968,-236.094C-188.439,-238.368 -187.563,-240.525 -186.34,-242.562C-185.863,-243.313 -185.189,-243.718 -184.319,-243.775C-169.985,-241.675 -156.239,-237.632 -143.082,-231.647C-141.746,-233.715 -140.466,-235.804 -139.242,-237.913C-138.062,-238.136 -136.983,-237.867 -136.007,-237.105C-135.444,-236.718 -135.174,-236.179 -135.199,-235.488C-135.77,-233.737 -136.512,-232.052 -137.422,-230.434C-137.692,-230.03 -137.692,-229.625 -137.422,-229.221C-125.016,-222.341 -113.628,-214.053 -103.261,-204.358C-77.953,-179.546 -63.803,-149.427 -60.811,-114.001C-67.227,-109.726 -68.642,-104.201 -65.056,-97.426C-63.511,-95.889 -61.961,-94.407 -60.407,-92.978C-62.155,-74.127 -66.871,-56.069 -74.557,-38.805C-74.09,-38.219 -73.483,-37.814 -72.737,-37.592C-70.883,-40.897 -69.13,-44.266 -67.482,-47.699L-66.067,-49.114C-62.923,-49.281 -59.823,-48.944 -56.768,-48.103C-56.254,-48.132 -55.783,-48.266 -55.353,-48.508C-49.628,-64.598 -46.125,-81.174 -44.842,-98.234C-43.123,-98.905 -41.304,-99.377 -39.384,-99.649C-36.15,-102.479 -36.15,-105.309 -39.384,-108.139C-41.328,-108.333 -43.147,-108.805 -44.842,-109.554C-47.121,-138.494 -56.15,-165.042 -71.929,-189.197C-101.265,-229.919 -141.086,-252.761 -191.394,-257.723C-191.972,-257.911 -192.444,-258.248 -192.809,-258.734C-193.41,-260.196 -193.949,-261.678 -194.426,-263.181C-195.955,-264.996 -197.908,-265.67 -200.288,-265.202ZM-338.148,-62.657C-336.111,-62.847 -334.965,-61.903 -334.712,-59.827C-334.176,-58.239 -334.041,-56.622 -334.307,-54.976C-335.732,-54.06 -336.81,-54.464 -337.541,-56.189C-338.481,-58.307 -338.683,-60.463 -338.148,-62.657ZM-60.407,-63.062C-58.933,-63.393 -57.99,-62.854 -57.577,-61.445C-58.07,-59.202 -58.811,-57.046 -59.8,-54.976C-62.069,-53.967 -63.013,-54.641 -62.63,-56.997C-62.317,-59.204 -61.576,-61.226 -60.407,-63.062ZM-343.808,-111.98C-337.896,-112.395 -334.392,-109.7 -333.297,-103.894C-334.168,-98.07 -337.537,-95.307 -343.404,-95.606C-349.526,-98.081 -351.21,-102.326 -348.457,-108.341C-347.18,-109.961 -345.63,-111.174 -343.808,-111.98ZM-226.566,-248.222C-223.759,-248.315 -223.085,-247.169 -224.545,-244.786C-227.677,-244.516 -228.351,-245.661 -226.566,-248.222ZM-316.721,-189.602C-314.782,-189.754 -313.569,-188.878 -313.082,-186.974C-314.229,-184.508 -315.779,-184.171 -317.732,-185.963C-318.166,-187.419 -317.829,-188.631 -316.721,-189.602ZM-94.771,-205.773C-93.417,-205.466 -92.271,-204.792 -91.334,-203.752C-84.346,-196.159 -78.215,-187.938 -72.94,-179.09C-73.831,-176.795 -75.111,-176.525 -76.78,-178.282C-82.207,-186.811 -88.406,-194.762 -95.377,-202.134C-96.266,-203.558 -96.064,-204.771 -94.771,-205.773ZM-65.258,-158.876C-62.842,-159.149 -61.495,-158.071 -61.215,-155.642C-62.051,-153.058 -63.466,-152.654 -65.46,-154.429C-66.283,-155.958 -66.216,-157.44 -65.258,-158.876ZM-72.131,-174.239C-69.336,-173.957 -68.662,-172.677 -70.11,-170.398C-72.91,-170.401 -73.583,-171.681 -72.131,-174.239ZM-240.312,-244.584C-237.864,-244.672 -237.122,-243.594 -238.088,-241.35C-238.929,-240.35 -239.805,-240.35 -240.716,-241.35C-241.142,-241.729 -241.412,-242.201 -241.525,-242.765C-241.195,-243.429 -240.791,-244.035 -240.312,-244.584ZM-284.379,-222.348C-281.751,-222.753 -280.74,-221.675 -281.346,-219.114C-282.694,-217.497 -284.042,-217.497 -285.389,-219.114C-285.784,-220.455 -285.447,-221.533 -284.379,-222.348ZM-61.62,-149.982C-60.824,-150.079 -60.083,-149.944 -59.396,-149.578C-57.543,-144.861 -56.33,-140.01 -55.758,-135.024C-57.135,-133.413 -58.348,-133.548 -59.396,-135.428C-60.376,-139.717 -61.522,-143.962 -62.832,-148.163C-62.648,-148.947 -62.243,-149.554 -61.62,-149.982ZM-325.615,-175.048C-322.158,-174.843 -321.349,-173.294 -323.19,-170.398C-326.222,-169.657 -327.367,-170.803 -326.626,-173.835C-326.203,-174.188 -325.867,-174.592 -325.615,-175.048ZM-56.364,-84.084C-54.723,-84.411 -53.646,-83.805 -53.13,-82.265C-53.498,-80.153 -53.97,-78.064 -54.545,-75.999C-56.024,-74.944 -57.169,-75.281 -57.981,-77.009C-57.592,-79.419 -57.053,-81.777 -56.364,-84.084ZM-332.892,-159.281C-331.041,-159.386 -329.964,-158.51 -329.658,-156.653C-330.633,-153.966 -332.183,-153.494 -334.307,-155.238C-334.81,-156.98 -334.338,-158.327 -332.892,-159.281ZM-114.176,-222.348C-113.17,-222.43 -112.226,-222.228 -111.346,-221.742C-107.708,-218.642 -104.069,-215.543 -100.431,-212.444C-99.299,-211.585 -98.49,-210.507 -98.005,-209.209C-98.958,-207.106 -100.306,-206.836 -102.048,-208.401C-106.255,-212.154 -110.5,-215.86 -114.783,-219.518C-115.029,-220.555 -114.827,-221.499 -114.176,-222.348ZM-290.847,-217.497C-288.967,-217.774 -287.889,-216.966 -287.613,-215.071C-289.274,-211.907 -290.891,-211.907 -292.464,-215.071C-292.116,-216.046 -291.577,-216.855 -290.847,-217.497ZM-55.151,-90.149C-52.73,-90.082 -52.191,-89.072 -53.534,-87.116C-55.812,-87.157 -56.351,-88.168 -55.151,-90.149ZM-148.944,-241.754C-145.771,-241.863 -144.827,-240.516 -146.114,-237.711C-148.319,-236.727 -149.667,-237.401 -150.157,-239.733C-150.053,-240.619 -149.649,-241.293 -148.944,-241.754ZM-157.434,-244.584C-153.638,-244.513 -152.965,-243.098 -155.413,-240.339C-157.069,-240.168 -158.147,-240.909 -158.647,-242.562C-158.34,-243.314 -157.936,-243.988 -157.434,-244.584ZM-297.316,-211.837C-294.96,-211.976 -293.949,-210.898 -294.283,-208.603C-295.535,-207.056 -296.748,-207.056 -297.922,-208.603C-298.282,-209.815 -298.08,-210.893 -297.316,-211.837ZM-336.531,-149.982C-334.81,-150.405 -333.732,-149.799 -333.297,-148.163C-336.192,-139.48 -338.55,-130.653 -340.371,-121.682C-341.102,-120.916 -341.978,-120.714 -342.999,-121.076C-343.583,-121.531 -343.852,-122.138 -343.808,-122.895C-342.324,-132.201 -339.898,-141.23 -336.531,-149.982ZM-130.752,-233.264C-129.745,-233.346 -128.802,-233.144 -127.922,-232.658C-125.469,-230.881 -122.909,-229.264 -120.24,-227.806C-118.393,-226.565 -118.258,-225.218 -119.836,-223.763C-120.375,-223.494 -120.914,-223.494 -121.453,-223.763C-124.418,-225.65 -127.383,-227.537 -130.347,-229.423C-131.78,-230.585 -131.915,-231.865 -130.752,-233.264ZM-329.658,-166.962C-327.575,-167.437 -326.362,-166.628 -326.019,-164.536C-327.075,-161.888 -328.625,-161.484 -330.669,-163.323C-331.315,-164.747 -330.978,-165.96 -329.658,-166.962ZM-68.088,-166.962C-66.26,-166.886 -65.182,-165.943 -64.854,-164.132C-65.889,-161.488 -67.439,-161.083 -69.503,-162.919C-70.077,-164.705 -69.605,-166.053 -68.088,-166.962ZM-199.48,-255.095C-194.025,-254.964 -190.926,-252.201 -190.181,-246.807C-191.231,-240.233 -195.004,-237.672 -201.501,-239.126C-206.686,-242.277 -207.832,-246.522 -204.937,-251.861C-203.362,-253.421 -201.543,-254.499 -199.48,-255.095ZM-276.697,-228.008C-274.125,-227.791 -273.249,-226.443 -274.069,-223.966C-276.231,-222.245 -277.781,-222.717 -278.719,-225.381C-278.402,-226.568 -277.728,-227.444 -276.697,-228.008ZM-247.589,-242.562C-244.417,-242.484 -243.608,-241.069 -245.163,-238.318C-247.137,-237.638 -248.484,-238.245 -249.206,-240.137C-248.815,-241.063 -248.276,-241.871 -247.589,-242.562ZM-219.289,-250.244C-216.934,-250.382 -215.923,-249.304 -216.257,-247.01C-218.212,-244.959 -219.762,-245.296 -220.906,-248.02C-220.701,-249.049 -220.162,-249.791 -219.289,-250.244ZM-176.435,-249.435C-172.029,-249.052 -167.717,-248.177 -163.498,-246.807C-161.845,-245.052 -162.181,-243.772 -164.509,-242.967C-168.308,-244.131 -172.149,-245.142 -176.031,-245.999C-176.534,-246.465 -176.938,-247.005 -177.244,-247.616C-176.934,-248.21 -176.665,-248.817 -176.435,-249.435ZM-342.595,-82.063C-340.374,-82.202 -339.228,-81.124 -339.159,-78.829C-338.384,-75.261 -337.643,-71.69 -336.935,-68.115C-336.595,-66.572 -337.201,-65.696 -338.754,-65.487C-340.305,-66.342 -341.114,-67.689 -341.18,-69.53C-341.845,-73.055 -342.586,-76.559 -343.404,-80.041C-343.017,-80.678 -342.747,-81.352 -342.595,-82.063ZM-258.909,-237.711C-257.85,-237.819 -256.839,-237.685 -255.877,-237.307C-255.752,-236.795 -255.55,-236.323 -255.27,-235.892C-255.501,-235.405 -255.771,-234.933 -256.079,-234.477C-259.903,-232.632 -263.676,-230.678 -267.399,-228.615C-269.097,-228.085 -270.175,-228.692 -270.633,-230.434C-270.415,-230.939 -270.145,-231.41 -269.824,-231.849C-266.161,-233.815 -262.522,-235.769 -258.909,-237.711ZM-55.96,-130.981C-54.648,-130.525 -53.907,-129.582 -53.736,-128.151C-53.264,-125.321 -52.793,-122.491 -52.321,-119.661C-52.31,-118.192 -52.984,-117.249 -54.343,-116.831C-55.259,-117.005 -55.865,-117.544 -56.162,-118.448C-56.878,-122.338 -57.283,-126.246 -57.375,-130.172C-56.848,-130.409 -56.377,-130.678 -55.96,-130.981ZM-57.577,-71.956C-54.425,-69.968 -54.492,-67.946 -57.779,-65.892C-60.18,-67.166 -60.584,-68.919 -58.992,-71.147C-58.465,-71.384 -57.994,-71.653 -57.577,-71.956ZM-233.439,-246.605C-230.803,-246.518 -230.129,-245.372 -231.418,-243.169C-233.075,-242.184 -234.153,-242.655 -234.652,-244.584C-234.345,-245.336 -233.94,-246.01 -233.439,-246.605ZM-342.999,-90.553C-340.449,-89.625 -340.314,-88.413 -342.595,-86.914C-344.046,-87.97 -344.18,-89.183 -342.999,-90.553ZM-56.364,-111.98C-49.307,-111.997 -46.14,-108.494 -46.863,-101.468C-49.322,-95.617 -53.432,-94.067 -59.194,-96.819C-64.04,-101.437 -64.04,-106.019 -59.194,-110.565C-58.214,-111.055 -57.27,-111.526 -56.364,-111.98ZM-302.571,-206.177C-300.215,-205.895 -299.474,-204.683 -300.348,-202.539C-303.649,-198.968 -306.951,-195.396 -310.253,-191.825C-312.492,-191.646 -313.233,-192.657 -312.476,-194.857C-309.518,-198.958 -306.217,-202.732 -302.571,-206.177ZM-320.764,-182.729C-318.396,-182.586 -317.52,-181.373 -318.136,-179.09C-319.337,-177.638 -320.685,-177.504 -322.179,-178.686C-322.682,-180.428 -322.21,-181.776 -320.764,-182.729ZM-202.714,-83.68C-203.779,-76.967 -204.52,-70.229 -204.937,-63.466C-203.864,-69.569 -202.988,-75.701 -202.309,-81.861C-202.313,-82.551 -202.448,-83.157 -202.714,-83.68ZM-144.093,11.326C-144.42,12.759 -144.825,14.174 -145.306,15.571C-143.15,15.841 -140.993,15.841 -138.837,15.571C-137.685,14.487 -136.607,13.341 -135.603,12.135C-135.738,11.73 -136.007,11.461 -136.412,11.326C-138.899,11.366 -141.46,11.366 -144.093,11.326ZM-269.824,3.24C-268.726,4.544 -267.513,5.824 -266.186,7.081C-262.01,7.283 -257.833,7.35 -253.653,7.283C-253.788,5.936 -253.923,4.588 -254.057,3.24L-269.824,3.24ZM-203.522,-224.774C-208.419,-223.88 -213.001,-222.061 -217.268,-219.316C-222.897,-214.281 -223.639,-208.554 -219.491,-202.134C-215.533,-196.511 -210.143,-193.008 -203.32,-191.623C-203.042,-191.959 -203.11,-192.229 -203.522,-192.432C-205.207,-193.341 -206.824,-194.352 -208.374,-195.464C-212.011,-198.496 -214.1,-202.337 -214.64,-206.986C-209.603,-200.122 -202.798,-196.888 -194.224,-197.283C-186.264,-197.059 -179.526,-199.754 -174.01,-205.369C-174.077,-205.503 -174.144,-205.638 -174.212,-205.773C-178.915,-203.99 -183.767,-202.912 -188.766,-202.539C-197.827,-202.372 -205.643,-205.472 -212.214,-211.837C-212.287,-213.468 -211.545,-214.681 -209.991,-215.476C-202.319,-210.693 -193.964,-208.874 -184.925,-210.018C-178.958,-210.98 -173.298,-212.867 -167.946,-215.678C-169.025,-216.455 -170.238,-216.926 -171.584,-217.093C-176.424,-215.772 -181.276,-214.491 -186.138,-213.252C-188.834,-212.982 -191.529,-212.982 -194.224,-213.252C-196.303,-213.433 -198.189,-214.107 -199.884,-215.274C-195.244,-217.325 -190.528,-219.145 -185.734,-220.731C-185.645,-221.206 -185.78,-221.611 -186.138,-221.944C-191.647,-224.53 -197.442,-225.473 -203.522,-224.774ZM-78.195,-32.741C-91.355,-10.484 -109.144,7.102 -131.56,20.018C-136.488,20.105 -141.407,20.308 -146.317,20.624C-146.653,20.759 -146.99,20.894 -147.327,21.029C-147.853,22.212 -148.257,23.425 -148.54,24.667C-141.256,24.673 -133.979,24.606 -126.709,24.465C-125.506,26.12 -125.775,27.468 -127.517,28.508C-135.333,28.643 -143.15,28.778 -150.966,28.912C-151.958,30.157 -152.902,31.437 -153.796,32.753C-153.526,32.888 -153.257,33.023 -152.987,33.157C-145.235,33.207 -137.418,33.14 -129.539,32.955C-101.453,18.548 -79.622,-2.407 -64.045,-29.911C-64.962,-30.871 -66.108,-31.41 -67.482,-31.528C-68.959,-30.992 -70.441,-30.453 -71.929,-29.911C-74.111,-30.699 -76.2,-31.643 -78.195,-32.741ZM-120.645,17.795C-118.013,18.754 -117.609,20.304 -119.432,22.444C-121.366,23.489 -122.713,22.95 -123.475,20.827C-123.131,19.205 -122.188,18.194 -120.645,17.795ZM-76.982,-25.868C-75.499,-26.192 -74.421,-25.721 -73.748,-24.453C-74.161,-23.424 -74.633,-22.413 -75.163,-21.421C-78.973,-16.093 -82.881,-10.837 -86.887,-5.654C-89.272,-4.562 -90.35,-5.371 -90.121,-8.079C-85.438,-13.817 -81.059,-19.746 -76.982,-25.868ZM-95.175,-2.824C-92.751,-3.296 -91.74,-2.352 -92.143,0.006C-98.439,6.035 -104.975,11.762 -111.751,17.188C-114.078,18.227 -115.223,17.486 -115.187,14.965C-108.197,9.39 -101.527,3.46 -95.175,-2.824ZM-279.931,-4.441C-278.476,-3.661 -277.263,-2.582 -276.293,-1.207C-269.019,-0.735 -261.742,-0.668 -254.462,-1.005C-254.077,-2.24 -253.943,-3.52 -254.057,-4.845C-262.752,-4.979 -271.377,-4.844 -279.931,-4.441ZM-261.739,11.326C-260.771,12.904 -259.558,14.319 -258.1,15.571C-256.083,15.773 -254.062,15.84 -252.036,15.773C-251.99,14.226 -252.395,12.811 -253.249,11.528C-256.261,11.808 -259.091,11.741 -261.739,11.326ZM-269.824,-13.739C-275.819,-13.403 -281.883,-13.201 -288.017,-13.133C-286.789,-12.04 -285.711,-10.827 -284.783,-9.494C-274.34,-9.503 -263.963,-9.57 -253.653,-9.697C-253.717,-10.928 -253.447,-12.073 -252.845,-13.133C-258.492,-13.655 -264.152,-13.857 -269.824,-13.739ZM-142.88,3.24C-143.25,4.545 -143.384,5.893 -143.284,7.283C-139.239,7.35 -135.196,7.283 -131.156,7.081C-129.717,6.028 -128.369,4.882 -127.113,3.645C-132.198,3.26 -137.453,3.125 -142.88,3.24ZM-174.818,-97.83C-177.34,-94.273 -179.766,-90.634 -182.095,-86.914C-184.817,-90.33 -187.445,-93.834 -189.979,-97.426C-190.922,-96.213 -191.866,-95 -192.809,-93.787C-191.345,-83.794 -189.661,-73.822 -187.755,-63.87C-185.105,-63.341 -182.477,-63.341 -179.872,-63.87C-178.004,-75.165 -176.319,-86.485 -174.818,-97.83ZM-228.588,-213.859C-230.297,-212.757 -231.847,-211.409 -233.237,-209.816C-238.044,-200.596 -237.64,-191.567 -232.024,-182.729C-231.813,-188.784 -230.667,-194.646 -228.588,-200.315C-230.038,-204.64 -229.903,-208.953 -228.183,-213.252C-228.212,-213.561 -228.346,-213.764 -228.588,-213.859ZM-143.689,37.604C-148.47,37.94 -153.321,38.142 -158.243,38.211C-160.264,39.962 -162.286,41.715 -164.307,43.466C-162.99,43.552 -161.71,43.754 -160.466,44.073C-153.235,43.056 -146.294,40.967 -139.646,37.806C-141.049,37.738 -142.396,37.671 -143.689,37.604ZM-144.093,-13.739C-143.91,-12.375 -143.641,-11.027 -143.284,-9.697C-140.118,-9.562 -136.951,-9.427 -133.784,-9.292C-126.704,-9.609 -119.629,-9.677 -112.559,-9.494L-108.921,-13.133C-120.644,-13.41 -132.368,-13.612 -144.093,-13.739ZM-253.249,-103.894C-261.965,-98.76 -270.792,-93.774 -279.729,-88.936C-283.046,-72.486 -286.415,-56.045 -289.836,-39.613C-290.165,-38.642 -290.098,-37.699 -289.634,-36.783C-289.5,-36.851 -289.365,-36.918 -289.23,-36.986C-287.253,-44.018 -285.366,-51.093 -283.57,-58.21C-283.3,-58.749 -283.031,-58.749 -282.761,-58.21C-281.957,-56.809 -281.351,-55.327 -280.942,-53.763C-280.615,-54.493 -280.143,-55.1 -279.527,-55.582C-280.476,-57.684 -281.487,-59.772 -282.559,-61.849C-282.86,-63.176 -282.59,-64.389 -281.751,-65.487C-280.11,-64.05 -278.695,-62.433 -277.506,-60.636C-277.101,-60.771 -276.832,-61.04 -276.697,-61.445C-278.213,-64.073 -279.83,-66.634 -281.549,-69.126C-281.274,-70.092 -280.936,-71.035 -280.538,-71.956C-279.055,-70.204 -277.573,-68.452 -276.091,-66.7C-276.023,-66.835 -275.956,-66.97 -275.889,-67.104C-277.07,-70.209 -278.418,-73.241 -279.931,-76.201C-279.812,-76.964 -279.61,-77.706 -279.325,-78.424C-278.803,-77.498 -278.13,-76.689 -277.304,-75.999C-277.444,-77.728 -277.646,-79.48 -277.91,-81.254C-276.051,-81.376 -274.231,-81.241 -272.452,-80.85C-270.646,-74.488 -268.759,-68.154 -266.792,-61.849C-266.836,-68.462 -267.173,-75.065 -267.803,-81.659C-263.489,-81.726 -259.176,-81.659 -254.866,-81.456C-254.51,-80.908 -254.375,-80.302 -254.462,-79.637C-257.303,-79.502 -260.133,-79.232 -262.952,-78.829C-262.682,-78.29 -262.413,-77.75 -262.143,-77.212C-258.803,-76.624 -255.434,-76.287 -252.036,-76.201C-251.288,-75.455 -251.153,-74.646 -251.632,-73.775C-254.562,-73.447 -257.459,-73.514 -260.324,-73.977C-260.564,-73.412 -260.497,-72.873 -260.122,-72.36C-252.358,-72.925 -246.294,-70.027 -241.929,-63.668C-241.659,-63.398 -241.39,-63.398 -241.12,-63.668C-244.005,-67.886 -247.037,-71.996 -250.217,-75.999C-251.599,-78.088 -252.879,-80.244 -254.057,-82.467C-250.689,-86.51 -247.319,-90.553 -243.95,-94.596C-246.954,-97.869 -250.053,-100.968 -253.249,-103.894ZM-271.442,-87.319L-253.653,-87.319C-253.752,-86.202 -254.291,-85.326 -255.27,-84.691C-260.526,-84.061 -265.781,-84.128 -271.037,-84.893C-271.38,-85.665 -271.515,-86.473 -271.442,-87.319ZM-271.442,-92.17C-264.837,-92.237 -258.234,-92.17 -251.632,-91.968C-250.715,-91.531 -250.648,-90.924 -251.43,-90.149C-258.608,-89.747 -265.818,-89.612 -273.059,-89.744L-273.059,-91.766C-272.412,-91.657 -271.873,-91.792 -271.442,-92.17ZM-142.88,-4.845L-142.88,-0.802C-135.602,-0.735 -128.325,-0.802 -121.049,-1.005C-119.642,-2.074 -118.294,-3.22 -117.006,-4.441C-125.627,-4.845 -134.251,-4.98 -142.88,-4.845ZM-222.524,-99.043C-220.75,-87.456 -218.93,-75.866 -217.066,-64.275C-215.827,-63.756 -214.48,-63.486 -213.023,-63.466C-211.743,-63.533 -210.463,-63.601 -209.182,-63.668C-208.637,-63.98 -208.3,-64.452 -208.172,-65.083C-206.598,-74.524 -205.116,-83.957 -203.724,-93.383C-204.959,-94.752 -206.037,-96.234 -206.959,-97.83C-209.221,-93.979 -211.781,-90.34 -214.64,-86.914C-217.372,-90.919 -220,-94.962 -222.524,-99.043ZM-226.162,-64.679C-226.253,-67.402 -226.59,-70.098 -227.173,-72.764C-228.332,-73.113 -229.276,-73.786 -230.003,-74.786C-231.963,-77.553 -233.917,-80.315 -235.865,-83.074C-235.793,-83.936 -235.389,-84.34 -234.652,-84.286C-232.58,-81.54 -230.356,-78.912 -227.981,-76.403C-227.519,-79.27 -228.462,-81.56 -230.811,-83.276C-231.798,-85.192 -231.191,-86.136 -228.992,-86.106C-229.867,-95.255 -230.608,-104.418 -231.216,-113.597C-231.35,-114.001 -231.485,-114.405 -231.62,-114.81C-233.241,-113.461 -235.06,-112.451 -237.078,-111.778C-239.268,-110.144 -241.29,-108.325 -243.142,-106.32C-239.492,-102.805 -235.854,-99.301 -232.226,-95.808C-236.519,-91.445 -240.696,-86.998 -244.759,-82.467C-240.114,-76.419 -235.465,-70.355 -230.811,-64.275C-230.421,-63.563 -229.949,-63.428 -229.396,-63.87C-231.553,-67.647 -233.911,-71.285 -236.471,-74.786C-237.471,-76.65 -238.347,-78.536 -239.099,-80.446C-238.624,-80.534 -238.22,-80.4 -237.886,-80.041C-233.774,-75.039 -229.866,-69.917 -226.162,-64.679ZM-165.116,-183.537C-160.092,-191.47 -159.62,-199.69 -163.701,-208.199C-164.093,-207.481 -164.43,-206.74 -164.711,-205.975C-164.146,-203.722 -163.876,-201.431 -163.903,-199.102C-164.246,-193.907 -164.651,-188.719 -165.116,-183.537ZM-144.497,-103.894C-147.028,-100.755 -149.791,-97.79 -152.785,-95C-152.424,-93.813 -151.683,-92.802 -150.561,-91.968C-141.692,-92.287 -132.798,-92.219 -123.879,-91.766L-123.879,-89.744C-132.1,-89.812 -140.321,-89.744 -148.54,-89.542C-146.495,-87.364 -144.608,-85.074 -142.88,-82.669C-146.674,-76.228 -150.919,-70.096 -155.615,-64.275C-155.885,-64.005 -155.885,-63.736 -155.615,-63.466C-153.514,-65.703 -151.29,-67.792 -148.944,-69.732C-147.383,-70.433 -145.766,-70.972 -144.093,-71.349C-141.239,-71.529 -138.409,-71.866 -135.603,-72.36L-135.603,-73.573C-138.984,-73.506 -142.353,-73.641 -145.71,-73.977C-145.721,-74.819 -145.452,-75.56 -144.902,-76.201C-141.533,-76.335 -138.163,-76.47 -134.795,-76.605C-134.211,-77.318 -133.806,-78.126 -133.582,-79.031C-136.277,-79.165 -138.972,-79.3 -141.667,-79.435C-142.54,-79.965 -142.674,-80.639 -142.072,-81.456C-137.627,-81.659 -133.179,-81.726 -128.73,-81.659C-129.574,-75.077 -130.046,-68.474 -130.145,-61.849C-128.076,-68.126 -126.122,-74.46 -124.283,-80.85C-122.579,-81.375 -120.895,-81.375 -119.23,-80.85C-119.321,-79.089 -119.456,-77.338 -119.634,-75.594C-119.121,-76.491 -118.515,-77.299 -117.815,-78.02C-117.428,-77.468 -117.159,-76.862 -117.006,-76.201C-117.983,-74.014 -119.128,-71.925 -120.443,-69.934C-120.742,-68.853 -120.876,-67.775 -120.847,-66.7C-119.355,-68.394 -117.94,-70.145 -116.602,-71.956C-116.091,-71.232 -115.821,-70.423 -115.793,-69.53C-116.988,-66.874 -118.403,-64.314 -120.038,-61.849C-120.308,-61.31 -120.308,-60.771 -120.038,-60.232C-118.623,-61.916 -117.208,-63.601 -115.793,-65.285C-115.41,-65.535 -115.073,-65.468 -114.783,-65.083C-114.208,-64.06 -114.073,-62.982 -114.378,-61.849C-115.444,-59.785 -116.455,-57.696 -117.41,-55.582C-116.675,-54.852 -116.203,-53.976 -115.995,-52.955C-115.921,-55.138 -115.18,-57.024 -113.772,-58.615C-111.511,-51.458 -109.624,-44.181 -108.112,-36.783C-107.464,-36.707 -106.925,-36.91 -106.495,-37.39C-110.322,-54.503 -113.893,-71.685 -117.208,-88.936C-126.296,-93.984 -135.392,-98.97 -144.497,-103.894ZM-144.093,-87.319L-125.496,-87.319C-125.566,-86.364 -125.701,-85.421 -125.9,-84.489C-131.292,-84.421 -136.683,-84.489 -142.072,-84.691C-142.984,-85.399 -143.658,-86.275 -144.093,-87.319ZM-220.502,-130.981C-220.862,-130.058 -220.929,-129.115 -220.704,-128.151C-219.101,-126.143 -217.349,-124.256 -215.449,-122.491C-216.843,-125.449 -218.528,-128.279 -220.502,-130.981ZM-257.696,-44.06C-260.297,-43.597 -262.386,-42.249 -263.962,-40.018C-266.053,-36.101 -267.199,-31.923 -267.399,-27.485L-260.526,-27.485C-260.737,-32.396 -258.581,-35.698 -254.057,-37.39C-249.88,-37.524 -245.702,-37.659 -241.525,-37.794C-239.564,-39.687 -237.678,-41.641 -235.865,-43.656C-243.137,-44.06 -250.414,-44.195 -257.696,-44.06ZM-175.627,-122.895C-180.37,-118.034 -185.356,-113.452 -190.585,-109.15C-188.035,-105.589 -185.407,-102.085 -182.702,-98.638C-180.006,-102.951 -177.312,-107.263 -174.616,-111.575C-174.451,-115.445 -174.788,-119.218 -175.627,-122.895ZM-318.742,-32.741C-320.534,-30.971 -322.69,-30.229 -325.211,-30.517C-327.599,-31.792 -330.024,-31.86 -332.488,-30.719C-332.926,-30.369 -332.993,-29.965 -332.69,-29.506C-329.827,-24.722 -326.862,-20.005 -323.796,-15.357C-308.564,4.734 -289.9,20.703 -267.803,32.551C-263.518,33.008 -259.206,33.211 -254.866,33.157C-250.958,33.023 -247.05,32.888 -243.142,32.753C-243.838,31.293 -244.782,30.013 -245.972,28.912C-249.305,28.838 -252.607,28.636 -255.877,28.306C-256.734,27.158 -256.666,26.081 -255.675,25.072C-253.124,24.817 -250.563,24.548 -247.993,24.263C-248.615,22.951 -249.289,21.671 -250.015,20.422C-255.001,20.288 -259.987,20.153 -264.973,20.018C-279.12,11.673 -291.72,1.363 -302.773,-10.909C-308.51,-17.92 -313.833,-25.197 -318.742,-32.741ZM-323.19,-27.889C-322.37,-27.955 -321.561,-27.887 -320.764,-27.687C-320.074,-26.374 -319.333,-25.094 -318.54,-23.846C-318.011,-22.148 -318.617,-21.07 -320.36,-20.612C-322.223,-22.073 -323.436,-23.96 -323.998,-26.272C-323.896,-26.908 -323.627,-27.447 -323.19,-27.889ZM-304.188,-2.824C-303.369,-2.889 -302.56,-2.822 -301.763,-2.622C-292.061,6.74 -281.414,14.825 -269.824,21.635C-268.104,23.417 -268.374,24.832 -270.633,25.88C-282.979,18.727 -294.232,10.102 -304.39,0.006C-304.615,-0.958 -304.548,-1.901 -304.188,-2.824ZM-315.912,-18.591C-313.775,-18.341 -312.563,-17.128 -312.274,-14.952C-312.903,-12.943 -314.115,-12.471 -315.912,-13.537C-318.068,-15.31 -318.068,-16.995 -315.912,-18.591ZM-263.76,24.667C-261.741,24.598 -261,25.541 -261.537,27.497C-263.073,29.212 -264.218,28.943 -264.973,26.689C-264.666,25.937 -264.262,25.263 -263.76,24.667ZM-310.253,-11.314C-307.757,-10.639 -306.612,-9.022 -306.816,-6.462C-307.621,-5.16 -308.631,-4.958 -309.848,-5.856C-312.205,-7.665 -312.34,-9.484 -310.253,-11.314ZM-223.332,-194.049C-223.445,-186.109 -225.197,-178.562 -228.588,-171.409C-227.473,-166.546 -225.924,-161.829 -223.939,-157.259C-223.253,-152.886 -222.309,-148.574 -221.109,-144.322C-220.327,-142.6 -219.383,-140.983 -218.279,-139.471C-214.182,-136.049 -210.207,-132.478 -206.352,-128.757C-200.05,-124.955 -194.121,-125.494 -188.564,-130.374C-185.659,-133.078 -182.695,-135.705 -179.67,-138.258C-177.844,-140.291 -176.429,-142.582 -175.425,-145.131C-174.409,-149.132 -173.6,-153.175 -172.999,-157.259C-170.835,-161.602 -169.42,-166.183 -168.754,-171.005C-171.548,-177.021 -172.895,-183.355 -172.797,-190.006C-175.944,-188.366 -179.178,-186.816 -182.5,-185.357C-184.504,-184.755 -186.525,-184.216 -188.564,-183.74C-202.096,-181.054 -213.685,-184.49 -223.332,-194.049ZM-220.906,-176.665C-219.06,-175.024 -217.039,-173.609 -214.842,-172.42C-211.351,-171.714 -207.847,-171.175 -204.331,-170.803C-202.662,-166.597 -204.145,-164.509 -208.778,-164.536C-213.09,-164.345 -216.661,-165.827 -219.491,-168.983C-220.481,-171.566 -220.953,-174.126 -220.906,-176.665ZM-176.84,-176.665C-174.985,-169.827 -177.68,-165.852 -184.925,-164.738C-186.376,-164.655 -187.791,-164.453 -189.17,-164.132C-189.579,-164.47 -190.051,-164.605 -190.585,-164.536C-190.401,-157.904 -190.604,-151.301 -191.192,-144.726C-194.243,-141.987 -197.68,-141.381 -201.501,-142.907C-203.789,-144.921 -203.654,-146.673 -201.097,-148.163C-199.891,-148.364 -198.678,-148.432 -197.458,-148.365C-197.526,-153.488 -197.458,-158.609 -197.256,-163.728C-195.583,-166.195 -193.764,-168.554 -191.798,-170.803C-188.686,-171.199 -185.586,-171.738 -182.5,-172.42C-180.18,-173.365 -178.293,-174.78 -176.84,-176.665ZM-165.52,-114.81C-166.178,-105.228 -166.986,-95.66 -167.946,-86.106C-166.808,-86.145 -165.999,-85.674 -165.52,-84.691C-166.814,-82.98 -167.96,-81.161 -168.956,-79.233C-169.048,-78.184 -169.25,-77.173 -169.563,-76.201C-169.428,-76.133 -169.293,-76.066 -169.158,-75.999C-166.943,-78.686 -164.652,-81.314 -162.286,-83.882C-161.626,-83.973 -161.222,-83.636 -161.073,-82.871C-162.892,-80.311 -164.711,-77.75 -166.531,-75.19C-167.423,-73.951 -168.569,-73.143 -169.967,-72.764C-170.364,-69.789 -170.701,-66.824 -170.978,-63.87C-167.387,-69.699 -163.209,-75.089 -158.445,-80.041C-158.175,-79.503 -158.175,-78.963 -158.445,-78.424C-160.433,-74.581 -162.723,-70.943 -165.318,-67.509C-166.115,-66.195 -166.654,-64.847 -166.935,-63.466C-161.939,-69.742 -157.02,-76.075 -152.179,-82.467C-156.435,-86.791 -160.613,-91.17 -164.711,-95.606C-161.15,-99.235 -157.511,-102.806 -153.796,-106.32C-155.759,-107.909 -157.645,-109.594 -159.456,-111.373C-161.488,-112.523 -163.509,-113.669 -165.52,-114.81ZM-221.715,-123.3C-221.963,-119.518 -222.165,-115.745 -222.321,-111.98L-213.831,-98.638C-211.437,-102.314 -208.809,-105.818 -205.948,-109.15C-211.371,-113.769 -216.627,-118.486 -221.715,-123.3ZM1145.7,-269.095L1145.7,-255.061L8.891,-255.061L8.891,-269.095L1145.7,-269.095ZM1145.7,42.007L1145.7,56.041L8.891,56.041L8.891,42.007L1145.7,42.007Z" style="fill:white;"/>
    </g>
</svg>
